<?xml version="1.0" encoding="iso-8859-1"?>
<!-- Generator: Adobe Illustrator 16.0.0, SVG Export Plug-In . SVG Version: 6.00 Build 0)  -->
<!DOCTYPE svg PUBLIC "-//W3C//DTD SVG 1.1//EN" "http://www.w3.org/Graphics/SVG/1.1/DTD/svg11.dtd">
<svg version="1.1" id="Capa_1" xmlns="http://www.w3.org/2000/svg" xmlns:xlink="http://www.w3.org/1999/xlink" x="0px" y="0px"
	 width="19.443px" height="19.443px" viewBox="0 0 19.443 19.443" style="enable-background:new 0 0 19.443 19.443;"
	 xml:space="preserve">
<g>
	<path d="M14.487,4.094c1.703-0.341,2.959-1.14,2.959-2.84c0-0.657-0.949-1.532-2.567-1.167c-1.607,0.363-3.685,2.152-4.257,3.078
		c-0.147-0.353-0.495-0.6-0.901-0.6c-0.405,0-0.753,0.247-0.9,0.598c-0.574-0.925-2.65-2.715-4.258-3.077
		C2.945-0.279,1.995,0.595,1.995,1.253c0,1.7,1.257,2.499,2.959,2.84C2.764,4.405,0.72,5.763,0.72,8.441
		c0,4.972,4.002,6.719,9.002,11.002c5-4.283,9.002-6.03,9.002-11.002C18.722,5.765,16.678,4.407,14.487,4.094z M14.282,0.844
		c1.196-0.271,1.9,0.377,1.9,0.864c0,1.459-1.247,2.024-2.812,2.201c-1.418,0.159-2.356-0.011-2.356-0.498
		C11.014,2.924,12.89,1.158,14.282,0.844z M3.256,1.708c0-0.487,0.704-1.135,1.902-0.864c1.393,0.314,3.269,2.08,3.269,2.567
		c0,0.486-0.939,0.657-2.357,0.498C4.504,3.732,3.256,3.167,3.256,1.708z M11.22,10.688l-1.5-3.021l-1.5,3.021V4.417
		C8.072,4.359,7.916,4.311,7.758,4.266c0.499-0.057,0.862-0.18,1.054-0.368C8.954,4.262,9.306,4.521,9.72,4.521
		c0.415,0,0.768-0.259,0.908-0.624c0.191,0.188,0.555,0.312,1.054,0.369c-0.157,0.045-0.313,0.094-0.462,0.151V10.688z"/>
</g>
<g>
</g>
<g>
</g>
<g>
</g>
<g>
</g>
<g>
</g>
<g>
</g>
<g>
</g>
<g>
</g>
<g>
</g>
<g>
</g>
<g>
</g>
<g>
</g>
<g>
</g>
<g>
</g>
<g>
</g>
</svg>
